<mxfile host="app.diagrams.net" agent="Mozilla/5.0 (Windows NT 10.0; Win64; x64) AppleWebKit/537.36 (KHTML, like Gecko) Chrome/131.0.0.0 Safari/537.36 Edg/131.0.0.0" version="25.0.3">
  <diagram name="PÃ¡gina-1" id="hrr-nIwVLEDYmRYn9f3L">
    <mxGraphModel dx="1379" dy="749" grid="1" gridSize="10" guides="1" tooltips="1" connect="1" arrows="1" fold="1" page="1" pageScale="1" pageWidth="827" pageHeight="1169" math="0" shadow="0">
      <root>
        <mxCell id="0" />
        <mxCell id="1" parent="0" />
        <mxCell id="lJeOEYgqJa1dvW8TfdwD-2" value="" style="rounded=1;whiteSpace=wrap;html=1;arcSize=6;fillColor=none;dashed=1;dashPattern=12 12;" vertex="1" parent="1">
          <mxGeometry x="200" y="170" width="690" height="580" as="geometry" />
        </mxCell>
        <mxCell id="lJeOEYgqJa1dvW8TfdwD-5" style="edgeStyle=orthogonalEdgeStyle;rounded=0;orthogonalLoop=1;jettySize=auto;html=1;" edge="1" parent="1" target="lJeOEYgqJa1dvW8TfdwD-4">
          <mxGeometry relative="1" as="geometry">
            <mxPoint x="657" y="251" as="sourcePoint" />
          </mxGeometry>
        </mxCell>
        <mxCell id="lJeOEYgqJa1dvW8TfdwD-38" value="" style="edgeStyle=orthogonalEdgeStyle;rounded=0;orthogonalLoop=1;jettySize=auto;html=1;" edge="1" parent="1" target="lJeOEYgqJa1dvW8TfdwD-16">
          <mxGeometry relative="1" as="geometry">
            <mxPoint x="689" y="283" as="sourcePoint" />
          </mxGeometry>
        </mxCell>
        <mxCell id="lJeOEYgqJa1dvW8TfdwD-3" value="VNET&lt;div&gt;&lt;br&gt;&lt;/div&gt;" style="image;aspect=fixed;html=1;points=[];align=center;fontSize=12;image=img/lib/azure2/networking/Virtual_Networks.svg;imageBackground=default;" vertex="1" parent="1">
          <mxGeometry x="781.5" y="150" width="67" height="40" as="geometry" />
        </mxCell>
        <mxCell id="lJeOEYgqJa1dvW8TfdwD-4" value="API Management" style="image;aspect=fixed;html=1;points=[];align=center;fontSize=12;image=img/lib/azure2/app_services/API_Management_Services.svg;" vertex="1" parent="1">
          <mxGeometry x="477" y="220" width="68" height="63" as="geometry" />
        </mxCell>
        <mxCell id="lJeOEYgqJa1dvW8TfdwD-7" style="edgeStyle=orthogonalEdgeStyle;rounded=0;orthogonalLoop=1;jettySize=auto;html=1;" edge="1" parent="1" source="lJeOEYgqJa1dvW8TfdwD-6" target="lJeOEYgqJa1dvW8TfdwD-4">
          <mxGeometry relative="1" as="geometry" />
        </mxCell>
        <mxCell id="lJeOEYgqJa1dvW8TfdwD-6" value="Azure AD B2C" style="image;aspect=fixed;html=1;points=[];align=center;fontSize=12;image=img/lib/azure2/identity/Azure_AD_B2C.svg;" vertex="1" parent="1">
          <mxGeometry x="297" y="220" width="69" height="64" as="geometry" />
        </mxCell>
        <mxCell id="lJeOEYgqJa1dvW8TfdwD-9" style="edgeStyle=orthogonalEdgeStyle;rounded=0;orthogonalLoop=1;jettySize=auto;html=1;" edge="1" parent="1" source="lJeOEYgqJa1dvW8TfdwD-8">
          <mxGeometry relative="1" as="geometry">
            <mxPoint x="689" y="219" as="targetPoint" />
          </mxGeometry>
        </mxCell>
        <mxCell id="lJeOEYgqJa1dvW8TfdwD-8" value="Usuario" style="image;sketch=0;aspect=fixed;html=1;points=[];align=center;fontSize=12;image=img/lib/mscae/Person.svg;" vertex="1" parent="1">
          <mxGeometry x="670.5" y="30" width="37" height="50" as="geometry" />
        </mxCell>
        <mxCell id="lJeOEYgqJa1dvW8TfdwD-12" style="edgeStyle=orthogonalEdgeStyle;rounded=0;orthogonalLoop=1;jettySize=auto;html=1;" edge="1" parent="1" source="lJeOEYgqJa1dvW8TfdwD-10" target="lJeOEYgqJa1dvW8TfdwD-3">
          <mxGeometry relative="1" as="geometry" />
        </mxCell>
        <mxCell id="lJeOEYgqJa1dvW8TfdwD-10" value="DDoS Protection" style="image;aspect=fixed;html=1;points=[];align=center;fontSize=12;image=img/lib/azure2/networking/DDoS_Protection_Plans.svg;" vertex="1" parent="1">
          <mxGeometry x="802" y="226.20999999999998" width="26" height="31.57" as="geometry" />
        </mxCell>
        <mxCell id="lJeOEYgqJa1dvW8TfdwD-13" value="" style="rounded=1;whiteSpace=wrap;html=1;" vertex="1" parent="1">
          <mxGeometry x="277" y="360" width="330" height="350" as="geometry" />
        </mxCell>
        <mxCell id="lJeOEYgqJa1dvW8TfdwD-14" value="Cluster AKS" style="image;aspect=fixed;html=1;points=[];align=center;fontSize=12;image=img/lib/azure2/compute/Kubernetes_Services.svg;" vertex="1" parent="1">
          <mxGeometry x="317" y="330" width="68" height="60" as="geometry" />
        </mxCell>
        <mxCell id="lJeOEYgqJa1dvW8TfdwD-20" style="edgeStyle=orthogonalEdgeStyle;rounded=0;orthogonalLoop=1;jettySize=auto;html=1;" edge="1" parent="1" source="lJeOEYgqJa1dvW8TfdwD-15" target="lJeOEYgqJa1dvW8TfdwD-18">
          <mxGeometry relative="1" as="geometry" />
        </mxCell>
        <mxCell id="lJeOEYgqJa1dvW8TfdwD-22" style="edgeStyle=orthogonalEdgeStyle;rounded=0;orthogonalLoop=1;jettySize=auto;html=1;" edge="1" parent="1" source="lJeOEYgqJa1dvW8TfdwD-15" target="lJeOEYgqJa1dvW8TfdwD-16">
          <mxGeometry relative="1" as="geometry" />
        </mxCell>
        <mxCell id="lJeOEYgqJa1dvW8TfdwD-24" style="edgeStyle=orthogonalEdgeStyle;rounded=0;orthogonalLoop=1;jettySize=auto;html=1;" edge="1" parent="1" source="lJeOEYgqJa1dvW8TfdwD-15" target="lJeOEYgqJa1dvW8TfdwD-23">
          <mxGeometry relative="1" as="geometry" />
        </mxCell>
        <mxCell id="lJeOEYgqJa1dvW8TfdwD-36" style="edgeStyle=orthogonalEdgeStyle;rounded=0;orthogonalLoop=1;jettySize=auto;html=1;" edge="1" parent="1" source="lJeOEYgqJa1dvW8TfdwD-15" target="lJeOEYgqJa1dvW8TfdwD-35">
          <mxGeometry relative="1" as="geometry" />
        </mxCell>
        <mxCell id="lJeOEYgqJa1dvW8TfdwD-15" value="WebAPI&amp;nbsp;&lt;div&gt;(net8)&lt;/div&gt;" style="aspect=fixed;sketch=0;html=1;dashed=0;whitespace=wrap;verticalLabelPosition=bottom;verticalAlign=top;fillColor=#2875E2;strokeColor=#ffffff;points=[[0.005,0.63,0],[0.1,0.2,0],[0.9,0.2,0],[0.5,0,0],[0.995,0.63,0],[0.72,0.99,0],[0.5,1,0],[0.28,0.99,0]];shape=mxgraph.kubernetes.icon2;prIcon=api" vertex="1" parent="1">
          <mxGeometry x="326" y="460" width="50" height="48" as="geometry" />
        </mxCell>
        <mxCell id="lJeOEYgqJa1dvW8TfdwD-16" value="Azure ML&lt;div&gt;(Computer Vision)&lt;/div&gt;" style="image;aspect=fixed;html=1;points=[];align=center;fontSize=12;image=img/lib/azure2/ai_machine_learning/Machine_Learning.svg;" vertex="1" parent="1">
          <mxGeometry x="670.5" y="360" width="64" height="68" as="geometry" />
        </mxCell>
        <mxCell id="lJeOEYgqJa1dvW8TfdwD-17" style="edgeStyle=orthogonalEdgeStyle;rounded=0;orthogonalLoop=1;jettySize=auto;html=1;entryX=0.52;entryY=0.208;entryDx=0;entryDy=0;entryPerimeter=0;" edge="1" parent="1" source="lJeOEYgqJa1dvW8TfdwD-4" target="lJeOEYgqJa1dvW8TfdwD-15">
          <mxGeometry relative="1" as="geometry">
            <Array as="points">
              <mxPoint x="507" y="440" />
              <mxPoint x="352" y="440" />
            </Array>
          </mxGeometry>
        </mxCell>
        <mxCell id="lJeOEYgqJa1dvW8TfdwD-18" value="Google Maps API" style="image;sketch=0;aspect=fixed;html=1;points=[];align=center;fontSize=12;image=img/lib/mscae/WebHosting.svg;" vertex="1" parent="1">
          <mxGeometry x="70" y="459" width="50" height="50" as="geometry" />
        </mxCell>
        <mxCell id="lJeOEYgqJa1dvW8TfdwD-21" value="API&lt;div&gt;PostProcesado&lt;/div&gt;&lt;div&gt;(net8)&lt;/div&gt;" style="aspect=fixed;sketch=0;html=1;dashed=0;whitespace=wrap;verticalLabelPosition=bottom;verticalAlign=top;fillColor=#2875E2;strokeColor=#ffffff;points=[[0.005,0.63,0],[0.1,0.2,0],[0.9,0.2,0],[0.5,0,0],[0.995,0.63,0],[0.72,0.99,0],[0.5,1,0],[0.28,0.99,0]];shape=mxgraph.kubernetes.icon2;prIcon=c_c_m" vertex="1" parent="1">
          <mxGeometry x="326" y="580" width="50" height="48" as="geometry" />
        </mxCell>
        <mxCell id="lJeOEYgqJa1dvW8TfdwD-23" value="Azure SQL&lt;div&gt;Database&lt;/div&gt;" style="image;aspect=fixed;html=1;points=[];align=center;fontSize=12;image=img/lib/azure2/databases/SQL_Database.svg;" vertex="1" parent="1">
          <mxGeometry x="679" y="521" width="48" height="64" as="geometry" />
        </mxCell>
        <mxCell id="lJeOEYgqJa1dvW8TfdwD-25" style="edgeStyle=orthogonalEdgeStyle;rounded=0;orthogonalLoop=1;jettySize=auto;html=1;entryX=0.5;entryY=0;entryDx=0;entryDy=0;entryPerimeter=0;" edge="1" parent="1" source="lJeOEYgqJa1dvW8TfdwD-15" target="lJeOEYgqJa1dvW8TfdwD-21">
          <mxGeometry relative="1" as="geometry" />
        </mxCell>
        <mxCell id="lJeOEYgqJa1dvW8TfdwD-28" value="Aplication Insight" style="image;aspect=fixed;html=1;points=[];align=center;fontSize=12;image=img/lib/azure2/devops/Application_Insights.svg;" vertex="1" parent="1">
          <mxGeometry x="677" y="647" width="44" height="63" as="geometry" />
        </mxCell>
        <mxCell id="lJeOEYgqJa1dvW8TfdwD-29" value="Log Analitics&lt;div&gt;&lt;br&gt;&lt;/div&gt;" style="image;aspect=fixed;html=1;points=[];align=center;fontSize=12;image=img/lib/azure2/analytics/Log_Analytics_Workspaces.svg;" vertex="1" parent="1">
          <mxGeometry x="783" y="640" width="64" height="64" as="geometry" />
        </mxCell>
        <mxCell id="lJeOEYgqJa1dvW8TfdwD-30" style="edgeStyle=orthogonalEdgeStyle;rounded=0;orthogonalLoop=1;jettySize=auto;html=1;entryX=1.045;entryY=0.397;entryDx=0;entryDy=0;entryPerimeter=0;" edge="1" parent="1" source="lJeOEYgqJa1dvW8TfdwD-29" target="lJeOEYgqJa1dvW8TfdwD-28">
          <mxGeometry relative="1" as="geometry" />
        </mxCell>
        <mxCell id="lJeOEYgqJa1dvW8TfdwD-31" value="CronJob&lt;div&gt;Monitorizacion&lt;/div&gt;&lt;div&gt;&lt;br&gt;&lt;/div&gt;" style="aspect=fixed;sketch=0;html=1;dashed=0;whitespace=wrap;verticalLabelPosition=bottom;verticalAlign=top;fillColor=#2875E2;strokeColor=#ffffff;points=[[0.005,0.63,0],[0.1,0.2,0],[0.9,0.2,0],[0.5,0,0],[0.995,0.63,0],[0.72,0.99,0],[0.5,1,0],[0.28,0.99,0]];shape=mxgraph.kubernetes.icon2;prIcon=cronjob" vertex="1" parent="1">
          <mxGeometry x="460" y="583" width="50" height="48" as="geometry" />
        </mxCell>
        <mxCell id="lJeOEYgqJa1dvW8TfdwD-32" style="edgeStyle=orthogonalEdgeStyle;rounded=0;orthogonalLoop=1;jettySize=auto;html=1;entryX=0.995;entryY=0.63;entryDx=0;entryDy=0;entryPerimeter=0;" edge="1" parent="1" source="lJeOEYgqJa1dvW8TfdwD-31" target="lJeOEYgqJa1dvW8TfdwD-15">
          <mxGeometry relative="1" as="geometry" />
        </mxCell>
        <mxCell id="lJeOEYgqJa1dvW8TfdwD-33" style="edgeStyle=orthogonalEdgeStyle;rounded=0;orthogonalLoop=1;jettySize=auto;html=1;entryX=0.8;entryY=0.563;entryDx=0;entryDy=0;entryPerimeter=0;" edge="1" parent="1" source="lJeOEYgqJa1dvW8TfdwD-31" target="lJeOEYgqJa1dvW8TfdwD-21">
          <mxGeometry relative="1" as="geometry" />
        </mxCell>
        <mxCell id="lJeOEYgqJa1dvW8TfdwD-34" style="edgeStyle=orthogonalEdgeStyle;rounded=0;orthogonalLoop=1;jettySize=auto;html=1;entryX=0.091;entryY=0.397;entryDx=0;entryDy=0;entryPerimeter=0;" edge="1" parent="1" source="lJeOEYgqJa1dvW8TfdwD-31" target="lJeOEYgqJa1dvW8TfdwD-28">
          <mxGeometry relative="1" as="geometry">
            <Array as="points">
              <mxPoint x="640" y="607" />
              <mxPoint x="640" y="672" />
            </Array>
          </mxGeometry>
        </mxCell>
        <mxCell id="lJeOEYgqJa1dvW8TfdwD-35" value="Azure Blob&lt;div&gt;Storage&lt;/div&gt;" style="image;sketch=0;aspect=fixed;html=1;points=[];align=center;fontSize=12;image=img/lib/mscae/BlobBlock.svg;" vertex="1" parent="1">
          <mxGeometry x="797" y="463" width="50" height="42" as="geometry" />
        </mxCell>
        <mxCell id="lJeOEYgqJa1dvW8TfdwD-37" value="Front Door&amp;nbsp;&lt;div&gt;&lt;div&gt;(con WAF)&lt;div&gt;&lt;br&gt;&lt;/div&gt;&lt;/div&gt;&lt;/div&gt;" style="image;sketch=0;aspect=fixed;html=1;points=[];align=center;fontSize=12;image=img/lib/mscae/Front_Doors.svg;" vertex="1" parent="1">
          <mxGeometry x="657.5" y="220" width="50" height="44" as="geometry" />
        </mxCell>
      </root>
    </mxGraphModel>
  </diagram>
</mxfile>
